<svg width="29" height="10" viewBox="0 0 29 10" fill="none" xmlns="http://www.w3.org/2000/svg">
<circle cx="7.5" cy="6.5" r="3.5" transform="rotate(90 7.5 6.5)" fill="#CCE5FF"/>
<circle cx="5.5" cy="4.5" r="3.5" transform="rotate(90 5.5 4.5)" fill="#1E8FFF"/>
<circle cx="3.5" cy="6.5" r="3.5" transform="rotate(90 3.5 6.5)" fill="#003366"/>
<rect x="12.9355" y="8.15625" width="5.92317" height="1.31626" rx="0.65813" transform="rotate(-90 12.9355 8.15625)" fill="#1E8FFF"/>
<rect x="11" y="4.00781" width="3.29395" height="1.31626" rx="0.65813" transform="rotate(-37.5585 11 4.00781)" fill="#1E8FFF"/>
<path d="M15.512 8V2.22061H19.4684V3.26788H16.7144V4.73406H19.0805V5.78133H16.7144V8H15.512ZM19.9797 8V3.76436H21.1433V8H19.9797ZM19.9797 3.38424V2.22061H21.1433V3.38424H19.9797ZM21.9948 8V2.12751H23.1585V8H21.9948ZM26.0502 8.09309C25.6003 8.09309 25.2098 7.99483 24.8788 7.7983C24.5479 7.59661 24.2919 7.32768 24.1108 6.99151C23.9298 6.65535 23.8393 6.28299 23.8393 5.87442C23.8393 5.45034 23.9324 5.07281 24.1186 4.74182C24.31 4.41083 24.566 4.14966 24.8866 3.9583C25.2073 3.76695 25.5693 3.67127 25.9727 3.67127C26.3088 3.67127 26.6062 3.72558 26.8648 3.83418C27.1234 3.93762 27.3406 4.08501 27.5164 4.27636C27.6974 4.46772 27.8345 4.6901 27.9276 4.94351C28.0207 5.19176 28.0672 5.46327 28.0672 5.75806C28.0672 5.84081 28.062 5.92356 28.0517 6.0063C28.0465 6.08388 28.0336 6.15111 28.0129 6.208H24.8401V5.35467H27.3535L26.8027 5.75806C26.8544 5.53568 26.8519 5.33915 26.795 5.16848C26.7381 4.99265 26.6372 4.8556 26.4924 4.75733C26.3528 4.6539 26.1795 4.60218 25.9727 4.60218C25.771 4.60218 25.5977 4.65131 25.4529 4.74958C25.3081 4.84784 25.1995 4.99265 25.1271 5.184C25.0547 5.37535 25.0262 5.60808 25.0418 5.88218C25.0211 6.12008 25.0495 6.32954 25.1271 6.51055C25.2047 6.69156 25.3236 6.83378 25.4839 6.93721C25.6443 7.03547 25.8382 7.08461 26.0658 7.08461C26.2726 7.08461 26.4485 7.04323 26.5933 6.96048C26.7433 6.87774 26.8596 6.76396 26.9424 6.61915L27.8733 7.06133C27.7905 7.2682 27.6586 7.44921 27.4776 7.60436C27.3018 7.75952 27.0923 7.88105 26.8493 7.96897C26.6062 8.05172 26.3399 8.09309 26.0502 8.09309Z" fill="#1E8FFF"/>
</svg>
